PathFileType	4	(X/Y/Z)	RBDS002\RBDS002runT25.trc
DataRate	CameraRate	NumFrames	NumMarkers	Units	OrigDataRate	OrigDataStartFrame	OrigNumFrames
150.000000	150.000000	4	33	mm	150.000000	1125	4500
Frame#	Time	L.ASIS			L.Heel.Bottom			L.Heel.Lateral			L.Heel.Top			L.Iliac.Crest			L.MT1			L.MT5			L.PSIS			L.Shank.Bottom.Lateral			L.Shank.Bottom.Medial			L.Shank.Top.Lateral			L.Shank.Top.Medial			L.Thigh.Bottom.Lateral			L.Thigh.Bottom.Medial			L.Thigh.Top.Lateral			L.Thigh.Top.Medial			R.ASIS			R.ASY			R.Heel.Bottom			R.Heel.Lateral			R.Heel.Top			R.Iliac.Crest			R.MT1			R.MT5			R.PSIS			R.Shank.Bottom.Lateral			R.Shank.Bottom.Medial			R.Shank.Top.Lateral			R.Shank.Top.Medial			R.Thigh.Bottom.Lateral			R.Thigh.Bottom.Medial			R.Thigh.Top.Lateral			R.Thigh.Top.Medial			
		X1	Y1	Z1	X2	Y2	Z2	X3	Y3	Z3	X4	Y4	Z4	X5	Y5	Z5	X6	Y6	Z6	X7	Y7	Z7	X8	Y8	Z8	X9	Y9	Z9	X10	Y10	Z10	X11	Y11	Z11	X12	Y12	Z12	X13	Y13	Z13	X14	Y14	Z14	X15	Y15	Z15	X16	Y16	Z16	X17	Y17	Z17	X18	Y18	Z18	X19	Y19	Z19	X20	Y20	Z20	X21	Y21	Z21	X22	Y22	Z22	X23	Y23	Z23	X24	Y24	Z24	X25	Y25	Z25	X26	Y26	Z26	X27	Y27	Z27	X28	Y28	Z28	X29	Y29	Z29	X30	Y30	Z30	X31	Y31	Z31	X32	Y32	Z32	X33	Y33	Z33	

1126	7.500000000000001	2328.341102297734	996.3014273169875	923.1814993159912	1725.782977410611	344.2017487497463	944.5813276816864	1745.47384624462	320.784023038517	896.6086438753064	1775.756098823392	353.122417364209	939.875432688127	2250.269834697157	1078.272864063724	867.3431245475377	1827.973081812904	138.3393503103644	973.4884126435187	1797.352054872979	165.4046074071227	864.7781875236068	2141.463220896507	1025.700679170336	973.7617243093574	1874.460026270373	335.9060311873111	881.2843201297029	1858.035216550325	370.4461953656028	916.0985923147377	1941.779588477428	378.6781146423833	866.4372351971392	1928.823680220451	415.2161343821572	903.1090751814424	2202.337029039876	557.8312748278009	866.7761138096167	2156.989185648491	560.391474795756	924.6475366770658	2192.4814317755	667.9332334147077	858.4740735549292	2153.370721483432	670.4311675498419	915.0231217060875	2320.509540727351	1011.070944789257	1136.13886419551	2445.868938011283	91.78619978074268	1037.189650305615	2258.054758008196	34.49767952613002	1029.62870379724	2280.715375387777	47.26838502091665	1069.930619117785	2272.215626748051	84.36992387430108	1030.638824232838	2222.066841841854	1078.46246900045	1182.730277544294	2493.772093610049	56.01266451269036	992.508157998465	2458.355954305618	45.30233607593283	1101.173688941875	2134.401776420148	1027.900656194696	1061.745439366457	2341.941675387347	164.1903168367628	1098.4487706567	2298.520898525139	176.6856555577645	1067.139931470962	2343.911653619145	241.9053296685931	1122.140312226431	2303.319080789347	253.6394877495337	1087.776542311205	2358.205858852722	595.8377741908652	1157.464995695639	2303.249721832077	578.2807957749666	1111.745372309764	2305.400312575279	689.8110766326845	1182.335807319194	2251.460185136207	671.1442570559017	1141.160487933051	
1127	7.506666666666667	2327.798383248647	990.5986685392577	923.5780601037638	1733.016219864315	343.0140454133746	945.2926414334115	1752.499703766359	320.4660332262742	896.8441691861764	1782.91138164297	352.334059012278	940.3634925967892	2249.903223534594	1070.9177533285	867.1108399610609	1836.686049094806	137.3754486166505	970.2316643418179	1805.123584176567	165.9954505086572	862.2420746318105	2140.544921807894	1020.109314215713	974.1103650876557	1882.227078963728	335.1043451824814	880.483772633894	1866.442200027538	369.5820948737556	915.6590841838391	1949.994263142283	377.1448760765887	865.6276682675873	1937.725714594752	413.5527756663857	902.6021366438828	2208.905411254856	552.0363279344544	864.9968650561775	2163.607157042746	553.2092589483132	922.9330239776032	2196.805278278017	661.9300708241051	857.6487252163388	2157.706054009586	663.2586635709179	914.2431692808835	2319.84404634416	1006.223580895795	1136.162192295826	2430.848951922525	90.03568452159541	1034.662355683353	2241.942110429601	35.69778339868792	1028.794165838349	2264.83769006773	48.91141824001793	1068.744480191461	2256.886494091147	85.48598949260521	1028.827584334707	2222.707692546809	1072.279048298277	1183.739892173528	2478.275576782517	53.73254223704163	991.1211674855921	2442.635178647191	45.2059356397038	1100.174039290946	2133.489733417899	1023.234059685629	1062.010643465999	2330.662636111122	164.0209480099489	1096.076097672583	2287.550264288518	178.1498214266071	1064.913292889685	2335.505844168983	241.5367822559475	1119.990971179414	2295.387704505849	254.8613676589719	1085.65524754258	2359.084859390663	592.2979573424298	1156.723988379116	2304.311979900723	574.6176787284709	1110.858286574848	2305.818585403242	685.7723795967814	1182.012479393875	2251.817851504894	666.9389288083323	1140.888506150128	
1128	7.513333333333334	2327.022761268811	985.0430052112129	924.0124147725596	1740.999272418877	341.2916488005296	946.2060831985355	1760.264306277267	319.6808639161642	897.2664509916663	1790.806020434799	351.0672514790541	941.0541623112551	2249.439697663587	1063.717750769714	866.8621323110486	1846.379519956199	136.0279181296381	966.9330274938794	1813.785708580475	166.2669346349982	859.7295721826011	2139.412922908027	1015.068110865526	974.3763416692954	1890.690164981863	334.037661365168	879.7940663160633	1875.489478621677	368.4120020466901	915.3261106745416	1958.816545954912	375.4688401486117	864.8958448423141	1947.169276223057	411.7167999092086	902.1645519987516	2215.89989956379	546.6404592613986	863.1193839740558	2170.586480335179	546.3747470203481	921.0521824603919	2201.424869813296	656.2423719648716	856.7058828939942	2162.218686033719	656.3689464503842	913.2486368433099	2318.918099875984	1001.686840043575	1136.261471648213	2415.388463670225	88.97169218807163	1032.683255230514	2225.779994072706	36.8569926678825	1028.098298674425	2248.851546141786	50.4431617625545	1067.758626502313	2241.268649687031	86.56114394629874	1027.373249596002	2223.154709541527	1066.385885157164	1184.755479284485	2462.453866723268	52.4933095034861	990.1722592840578	2426.656361775956	45.49561584223282	1099.449456500555	2132.385039905651	1018.973301746877	1062.206452464546	2318.858093506828	164.2995799018088	1094.117333043554	2276.186634999957	180.0297276933394	1063.015425445332	2326.562179344342	241.5447716325639	1118.152796621267	2287.031050938877	256.4254591135642	1083.771285489336	2359.457729191068	588.8540979809731	1155.846633366002	2304.974573564745	571.2418306030812	1109.642509544651	2305.770630185816	681.8765655366739	1181.572416785239	2251.846655068307	663.0377803432013	1140.302237452254	
1129	7.52	2326.010665834858	979.7727065629538	924.4423328758224	1749.692425141835	339.0365011363997	947.2321292870173	1768.761740539111	318.4243622244154	897.8036972848239	1799.39807241576	349.3370659070343	941.8863223507713	2248.794686897195	1056.909622602136	866.6157162187789	1857.059054640378	134.3438952264002	963.633950683526	1823.396876690419	166.2222925193103	857.2474819283557	2138.086834072006	1010.622704958045	974.5800035629715	1899.83694221616	332.7312903469435	879.2094102499238	1885.150507325876	366.9729754414806	915.0794768120793	1968.231763275307	373.6853922298351	864.2364007216705	1957.128381378664	409.754515319237	901.7836722367451	2223.340084960763	541.7282996408126	861.201237475665	2177.961749256237	539.9854541182489	919.0714012349747	2206.360686661481	650.9509473320398	855.6573458004252	2166.938935776846	649.8405147459335	912.0522894365978	2317.777039291913	997.5056352543828	1136.443808161033	2399.580522199076	88.42215650003648	1031.275807294806	2209.574884930769	37.92553552137718	1027.572474036608	2232.775142556127	51.79339073688421	1067.011178081462	2225.420301815519	87.54702819902235	1026.307981728133	2223.325375827379	1060.892291306488	1185.71349057309	2446.379898499039	52.02962134325958	989.6405251069042	2410.468933837262	45.97491958576342	1099.0026493923	2131.128484969737	1015.117396465484	1062.34271119619	2306.585510045848	164.8387769859005	1092.63185838506	2264.445650857481	182.110478480586	1061.557056633821	2317.10122914215	241.7446285234027	1116.703753450448	2278.21516294442	258.1160604727241	1082.249081577098	2359.102599170169	585.4082959893755	1154.826611807007	2305.011327694282	568.1078799857094	1108.082428162784	2305.110616061507	678.0785081241431	1180.998338183131	2251.411639821873	659.4561691145046	1139.353441965639	
